<svg id="visual" viewBox="0 0 900 450" width="900" height="450" xmlns="http://www.w3.org/2000/svg" xmlns:xlink="http://www.w3.org/1999/xlink" version="1.1"><path d="M0 123L82 118L164 37L245 73L327 42L409 91L491 42L573 105L655 46L736 91L818 55L900 55L900 0L818 0L736 0L655 0L573 0L491 0L409 0L327 0L245 0L164 0L82 0L0 0Z" fill="#86bbd8"></path><path d="M0 159L82 186L164 123L245 118L327 82L409 123L491 87L573 145L655 105L736 163L818 123L900 123L900 53L818 53L736 89L655 44L573 103L491 40L409 89L327 40L245 71L164 35L82 116L0 121Z" fill="#5284a7"></path><path d="M0 267L82 303L164 226L245 244L327 271L409 280L491 298L573 271L655 312L736 298L818 258L900 213L900 121L818 121L736 161L655 103L573 143L491 85L409 121L327 80L245 116L164 121L82 184L0 157Z" fill="#33658a"></path><path d="M0 307L82 334L164 285L245 289L327 348L409 352L491 366L573 325L655 352L736 357L818 330L900 280L900 211L818 256L736 296L655 310L573 269L491 296L409 278L327 269L245 242L164 224L82 301L0 265Z" fill="#5284a7"></path><path d="M0 451L82 451L164 451L245 451L327 451L409 451L491 451L573 451L655 451L736 451L818 451L900 451L900 278L818 328L736 355L655 350L573 323L491 364L409 350L327 346L245 287L164 283L82 332L0 305Z" fill="#86bbd8"></path></svg>